<?xml version="1.0" encoding="UTF-8" standalone="no"?>
<svg
   xmlns:dc="http://purl.org/dc/elements/1.1/"
   xmlns:cc="http://creativecommons.org/ns#"
   xmlns:rdf="http://www.w3.org/1999/02/22-rdf-syntax-ns#"
   xmlns:svg="http://www.w3.org/2000/svg"
   xmlns="http://www.w3.org/2000/svg"
   id="svg873"
   viewBox="0 0 513.34021 513.33997"
   version="1.1"
   height="513.33997pt"
   width="513.34021pt">
  <metadata
     id="metadata877">
    <rdf:RDF>
      <cc:Work
         rdf:about="">
        <dc:format>image/svg+xml</dc:format>
        <dc:type
           rdf:resource="http://purl.org/dc/dcmitype/StillImage" />
        <dc:title></dc:title>
      </cc:Work>
    </rdf:RDF>
  </metadata>
  <defs
     id="defs851">
    <symbol
       overflow="visible"
       id="f">
      <path
         id="path833"
         d="m 39.078,-2.3281 c -2.0117,1.043 -4.1094,1.8281 -6.2969,2.3594 -2.1875,0.5313 -4.4648,0.79688 -6.8281,0.79688 -7.0859,0 -12.699,-1.9766 -16.844,-5.9375 -4.1367,-3.957 -6.2031,-9.3281 -6.2031,-16.109 0,-6.7891 2.0664,-12.164 6.2031,-16.125 4.1445,-3.9688 9.7578,-5.9531 16.844,-5.9531 2.3633,0 4.6406,0.26562 6.8281,0.79688 2.1875,0.53126 4.2852,1.3242 6.2969,2.375 v 8.7969 c -2.0312,-1.3828 -4.0391,-2.3984 -6.0156,-3.0469 -1.9688,-0.64453 -4.0469,-0.96875 -6.2344,-0.96875 -3.9062,0 -6.9844,1.2578 -9.2344,3.7656 -2.2422,2.5 -3.3594,5.9531 -3.3594,10.359 0,4.3867 1.1172,7.8359 3.3594,10.344 2.25,2.5 5.3281,3.75 9.2344,3.75 2.1875,0 4.2656,-0.32031 6.2344,-0.96875 1.9766,-0.64453 3.9844,-1.6602 6.0156,-3.0469 z" />
    </symbol>
    <symbol
       overflow="visible"
       id="e">
      <path
         id="path836"
         d="m 16.031,-40.953 v 9.0625 h 10.516 v 7.2812 H 16.031 v 13.531 c 0,1.4805 0.28906,2.4805 0.875,3 0.59375,0.52344 1.7656,0.78125 3.5156,0.78125 h 5.2344 v 7.2969 h -8.7344 c -4.0312,0 -6.8867,-0.83594 -8.5625,-2.5156 -1.6797,-1.6875 -2.5156,-4.5391 -2.5156,-8.5625 v -13.531 H 0.7654 v -7.2812 h 5.0781 v -9.0625 z" />
    </symbol>
    <symbol
       overflow="visible"
       id="d">
      <path
         id="path839"
         d="M 26.594,-27.234 V -44.312 H 36.86 V 0 H 26.594 v -4.6094 c -1.3984,1.875 -2.9453,3.25 -4.6406,4.125 -1.6875,0.875 -3.6406,1.3125 -5.8594,1.3125 -3.9297,0 -7.1562,-1.5625 -9.6875,-4.6875 -2.5234,-3.125 -3.7812,-7.1445 -3.7812,-12.062 0,-4.9141 1.2578,-8.9375 3.7812,-12.062 2.5312,-3.125 5.7578,-4.6875 9.6875,-4.6875 2.1953,0 4.1445,0.44531 5.8438,1.3281 1.707,0.88672 3.2578,2.2578 4.6562,4.1094 z m -6.7188,20.656 c 2.1875,0 3.8516,-0.79688 5,-2.3906 1.1445,-1.5938 1.7188,-3.9102 1.7188,-6.9531 0,-3.0391 -0.57422,-5.3594 -1.7188,-6.9531 -1.1484,-1.5938 -2.8125,-2.3906 -5,-2.3906 -2.168,0 -3.8242,0.79688 -4.9688,2.3906 -1.1484,1.5938 -1.7188,3.9141 -1.7188,6.9531 0,3.043 0.57031,5.3594 1.7188,6.9531 1.1445,1.5938 2.8008,2.3906 4.9688,2.3906 z" />
    </symbol>
    <symbol
       overflow="visible"
       id="c">
      <path
         id="path842"
         d="m 21.875,-6.5781 c 2.1758,0 3.8359,-0.79688 4.9844,-2.3906 1.1562,-1.5938 1.7344,-3.9102 1.7344,-6.9531 0,-3.0391 -0.57812,-5.3594 -1.7344,-6.9531 -1.1484,-1.5938 -2.8086,-2.3906 -4.9844,-2.3906 -2.1875,0 -3.8672,0.80469 -5.0312,2.4062 -1.168,1.6055 -1.75,3.918 -1.75,6.9375 0,3.0234 0.58203,5.3359 1.75,6.9375 1.1641,1.6055 2.8438,2.4062 5.0312,2.4062 z m -6.7812,-20.656 c 1.4062,-1.8516 2.9609,-3.2227 4.6719,-4.1094 1.707,-0.88281 3.6719,-1.3281 5.8906,-1.3281 3.9375,0 7.1641,1.5625 9.6875,4.6875 2.5195,3.125 3.7812,7.1484 3.7812,12.062 0,4.918 -1.2617,8.9375 -3.7812,12.062 -2.5234,3.125 -5.75,4.6875 -9.6875,4.6875 -2.2188,0 -4.1836,-0.44531 -5.8906,-1.3281 -1.7109,-0.88281 -3.2656,-2.2539 -4.6719,-4.1094 V -7e-4 H 4.9058 v -44.312 h 10.188 z" />
    </symbol>
    <symbol
       overflow="visible"
       id="b">
      <path
         id="path845"
         d="m -0.5625,-42.516 h 11.984 l 9.6875,15.141 9.6719,-15.141 h 12.031 l -16.219,24.594 V 0 h -10.953 v -17.922 z" />
    </symbol>
    <symbol
       overflow="visible"
       id="a">
      <path
         id="path848"
         d="m 5.3594,-42.516 h 18.188 c 5.4141,0 9.5703,1.2031 12.469,3.6094 2.8945,2.3984 4.3438,5.8125 4.3438,10.25 0,4.4688 -1.4492,7.9062 -4.3438,10.312 -2.8984,2.3984 -7.0547,3.5938 -12.469,3.5938 H 16.313 V -8e-4 H 5.36 Z m 10.953,7.9375 v 11.875 h 6.0781 c 2.125,0 3.7656,-0.51562 4.9219,-1.5469 1.1563,-1.03128 1.7344,-2.5 1.7344,-4.4062 0,-1.8945 -0.57812,-3.3516 -1.7344,-4.375 -1.1562,-1.0312 -2.7969,-1.5469 -4.9219,-1.5469 z" />
    </symbol>
  </defs>
  <path
     d="m 350.0021,373.338 h -186.66 c -6.4453,0 -11.668,-5.2266 -11.668,-11.668 0,-6.4414 5.2227,-11.668 11.668,-11.668 h 186.66 c 6.4453,0 11.668,5.2266 11.668,11.668 0,6.4414 -5.2227,11.668 -11.668,11.668 z"
     id="path853"
     style="opacity:1;stop-opacity:1;fill:#ffffff" />
  <path
     d="m 303.3421,419.998 h -140 c -6.4453,0 -11.668,-5.2227 -11.668,-11.664 0,-6.4453 5.2227,-11.668 11.668,-11.668 h 140 c 6.4414,0 11.664,5.2227 11.664,11.668 0,6.4414 -5.2227,11.664 -11.664,11.664 z"
     id="path855"
     style="opacity:1;stop-opacity:1;fill:#ffffff" />
  <path
     d="m 431.6721,163.338 h -11.668 V 11.668 c 0,-3.0938 -1.2266,-6.0625 -3.4141,-8.25 C 414.3986,1.2305 411.4338,0 408.34,0 H 105 C 98.5586,0 93.336,5.2266 93.336,11.668 v 151.67 H 81.668 c -21.66,0 -42.43,8.6016 -57.746,23.918 C 8.606,202.572 0,223.346 0,245.002 v 151.67 c 0,3.0938 1.2305,6.0625 3.418,8.25 2.1875,2.1875 5.1562,3.418 8.25,3.418 h 81.668 v 93.332 c 0,3.0938 1.2266,6.0625 3.4141,8.25 2.1914,2.1875 5.1562,3.418 8.25,3.418 h 303.34 c 3.0938,0 6.0586,-1.2305 8.25,-3.418 2.1875,-2.1875 3.4141,-5.1562 3.4141,-8.25 V 408.34 h 81.668 c 3.0938,0 6.0625,-1.2305 8.25,-3.418 2.1875,-2.1875 3.418,-5.1562 3.418,-8.25 v -151.67 c 0,-21.656 -8.6055,-42.43 -23.922,-57.746 -15.316,-15.316 -36.086,-23.918 -57.746,-23.918 z m -315,-140 h 280 v 140 h -280 z m 280,466.66 h -280 v -175 h 280 z m 35,-245 c -4.7188,0 -8.9727,-2.8398 -10.777,-7.1992 -1.8086,-4.3594 -0.80859,-9.3789 2.5273,-12.715 3.3359,-3.3359 8.3555,-4.3359 12.715,-2.5312 4.3594,1.8086 7.2031,6.0625 7.2031,10.781 0,3.0938 -1.2305,6.0586 -3.418,8.25 -2.1875,2.1875 -5.1562,3.4141 -8.25,3.4141 z"
     id="path857"
     style="opacity:1;stop-opacity:1;fill:#ffffff" />
</svg>
